<?xml version="1.0" encoding="utf-8"?>
<!-- Generator: Adobe Illustrator 18.1.1, SVG Export Plug-In . SVG Version: 6.00 Build 0)  -->
<!DOCTYPE svg PUBLIC "-//W3C//DTD SVG 1.1//EN" "http://www.w3.org/Graphics/SVG/1.1/DTD/svg11.dtd">
<svg version="1.1" id="Layer_1" xmlns="http://www.w3.org/2000/svg" xmlns:xlink="http://www.w3.org/1999/xlink" x="0px" y="0px"
	 viewBox="0 0 100 100" style="enable-background:new 0 0 100 100;" xml:space="preserve">
<path id="circle_1_" d="M50,1C22.9,1,1,22.9,1,50c0,27.1,21.9,49,49,49c27.1,0,49-21.9,49-49C99,22.9,77.1,1,50,1z M50,84.7
	c-19.2,0-34.7-15.5-34.7-34.7c0-19.2,15.5-34.7,34.7-34.7c19.2,0,34.7,15.5,34.7,34.7C84.7,69.2,69.2,84.7,50,84.7z"/>
<path id="n" d="M25.5,39c0-0.3,0.3-0.6,0.6-0.6h0.8l13.3,14.2h0V39.4c0-0.3,0.3-0.6,0.6-0.6h2.9c0.3,0,0.6,0.3,0.6,0.6V61
	c0,0.3-0.3,0.6-0.6,0.6h-0.8L29.7,46.8h0v13.8c0,0.3-0.3,0.6-0.6,0.6h-2.9c-0.3,0-0.6-0.3-0.6-0.6V39z"/>
<path id="w" d="M47.5,39.6c-0.1-0.4,0.1-0.8,0.6-0.8h2.9c0.3,0,0.5,0.2,0.6,0.4L55,52h0.1l5.1-13.2c0.1-0.2,0.2-0.4,0.5-0.4h0.6
	c0.3,0,0.5,0.2,0.5,0.4L67,52h0.1l3.3-12.8c0.1-0.2,0.3-0.4,0.6-0.4h2.9c0.4,0,0.7,0.3,0.6,0.8l-6.1,21.5c-0.1,0.3-0.3,0.4-0.6,0.4
	h-0.5c-0.3,0-0.5-0.2-0.5-0.4L61,46.7h-0.2l-5.7,14.5c-0.1,0.2-0.2,0.4-0.5,0.4h-0.5c-0.3,0-0.5-0.2-0.6-0.4L47.5,39.6z"/>
</svg>
